<svg xmlns="http://www.w3.org/2000/svg" width="60" height="60" viewBox="6634 2034 60 60"><defs><style>.cls-1{fill:#555}</style></defs><path id="edit_1_" data-name="edit (1)" class="cls-1" d="M59.127 3.731L56.278.88a2.99 2.99 0 0 0-4.22 0l-3.125 3.127H0v56h55.984V11.1l.3-.305 2.838-2.839a2.99 2.99 0 0 0 .005-4.225zM20.041 36.76l3.219 3.22-4.427 1.208zm32.006-24.554l-4.241-4.242L49.22 6.55l4.242 4.242zm-1.413 1.414L25.185 39.077l-4.241-4.242L46.393 9.378zm3.351-.523v44.912H2v-52h44.934l-28.11 28.119-.188.188-2.121 7.784-1.225 1.221a1 1 0 1 0 1.41 1.414l1.226-1.226 7.777-2.123 26.346-26.351.447-.447zm3.729-6.558l-2.839 2.839-4.241-4.243L53.472 2.3a.987.987 0 0 1 1.393 0l2.849 2.85a.986.986 0 0 1 0 1.389z" transform="translate(6634 2033.991)"/></svg>