<svg width="32" height="30" viewBox="0 0 32 30" xmlns="http://www.w3.org/2000/svg"><title>Artboard Copy 3</title><g transform="translate(1 6)" fill="none" fill-rule="evenodd"><rect stroke="#6ACB8E" stroke-width="1.5" fill="#DBFBDF" width="30" height="18" rx="1"/><rect fill="#6ACB8E" width="4" height="4" rx="1"/><rect fill="#6ACB8E" y="14" width="4" height="4" rx="1"/><rect fill="#6ACB8E" x="26" width="4" height="4" rx="1"/><rect fill="#6ACB8E" x="26" y="14" width="4" height="4" rx="1"/><circle stroke="#6ACB8E" stroke-width="1.5" cx="15" cy="9" r="6"/><path d="M17.42 10.4c0-.883-.524-1.465-1.357-1.827l-.648-.27.04-1.607c.381.05.855.291 1.204.673l.638-.994c-.411-.482-1.11-.763-1.728-.813l.01-.562h-.74l-.021.542c-.556.05-1.09.22-1.44.522a1.84 1.84 0 0 0-.68 1.455c0 .824.494 1.265.72 1.436.227.18.536.331.927.492l.35.14-.031 1.676c-.443-.01-1.184-.36-1.482-.823l-.761 1.004c.514.633 1.358.994 2.13 1.024L14.53 13h.74l.021-.552c.391-.03.978-.22 1.338-.502.4-.311.792-.833.792-1.546zm-2.643-2.318l-.113-.05c-.258-.121-.525-.302-.525-.673 0-.392.278-.643.669-.673l-.031 1.396zM16 10.59c0 .391-.37.662-.69.693l.032-1.496.164.08c.309.15.494.342.494.723z" fill="#6ACB8E"/></g></svg>